<svg width="441" height="19" viewBox="0 0 441 19" fill="none" xmlns="http://www.w3.org/2000/svg">
<line y1="9" x2="208" y2="9" stroke="#F4EEF6"/>
<path d="M217.566 15.15C216.716 15.15 216.001 14.955 215.421 14.565C214.841 14.165 214.401 13.65 214.101 13.02C213.801 12.39 213.651 11.725 213.651 11.025C213.651 10.315 213.801 9.65 214.101 9.03C214.401 8.4 214.841 7.89 215.421 7.5C216.001 7.1 216.716 6.9 217.566 6.9C218.416 6.9 219.131 7.1 219.711 7.5C220.291 7.89 220.731 8.4 221.031 9.03C221.331 9.65 221.481 10.315 221.481 11.025C221.481 11.725 221.331 12.39 221.031 13.02C220.731 13.65 220.291 14.165 219.711 14.565C219.131 14.955 218.416 15.15 217.566 15.15ZM217.566 13.905C218.106 13.905 218.556 13.77 218.916 13.5C219.286 13.22 219.561 12.86 219.741 12.42C219.931 11.98 220.026 11.515 220.026 11.025C220.026 10.525 219.931 10.06 219.741 9.63C219.561 9.19 219.286 8.835 218.916 8.565C218.556 8.285 218.106 8.145 217.566 8.145C217.036 8.145 216.586 8.285 216.216 8.565C215.846 8.835 215.566 9.19 215.376 9.63C215.196 10.06 215.106 10.525 215.106 11.025C215.106 11.515 215.196 11.98 215.376 12.42C215.566 12.86 215.846 13.22 216.216 13.5C216.586 13.77 217.036 13.905 217.566 13.905ZM223.425 15V7.05H224.85V8.04H224.91C225.08 7.74 225.33 7.475 225.66 7.245C225.99 7.015 226.455 6.9 227.055 6.9C227.225 6.9 227.38 6.91 227.52 6.93C227.66 6.94 227.73 6.945 227.73 6.945V8.31C227.73 8.31 227.65 8.305 227.49 8.295C227.34 8.275 227.18 8.265 227.01 8.265C226.32 8.265 225.785 8.465 225.405 8.865C225.035 9.255 224.85 9.895 224.85 10.785V15H223.425Z" fill="white"/>
<line x1="233" y1="9" x2="441" y2="9" stroke="#F4EEF6"/>
</svg>
