<svg width="24" height="24" viewBox="0 0 24 24" fill="none" xmlns="http://www.w3.org/2000/svg">
<path d="M21 6.5C20.5884 6.49977 20.1811 6.58436 19.8037 6.74849C19.4262 6.91262 19.0866 7.15278 18.8061 7.45397C18.5255 7.75515 18.31 8.11092 18.1731 8.49908C18.0361 8.88723 17.9806 9.29944 18.01 9.71L15.98 10.39C15.6582 9.78146 15.2001 9.25547 14.6416 8.85305C14.0831 8.45063 13.4391 8.18264 12.76 8.07V5.91C13.4013 5.73856 13.9682 5.3606 14.3731 4.83459C14.778 4.30857 14.9983 3.6638 15 3C15 1.34 13.66 0 12 0C10.34 0 9 1.34 9 3C9 4.4 9.96 5.57 11.25 5.91V8.07C9.85 8.3 8.67 9.18 8.03 10.39L5.99 9.71C6 9.64 6 9.57 6 9.5C6 7.84 4.66 6.5 3 6.5C1.34 6.5 0 7.84 0 9.5C0 11.16 1.34 12.5 3 12.5C4.06 12.5 4.98 11.95 5.52 11.13L7.55 11.81C7.35 13.1 7.72 14.47 8.64 15.5L7.23 17.27C6.85 17.09 6.44 17 6 17C4.34 17 3 18.34 3 20C3 21.66 4.34 23 6 23C7.66 23 9 21.66 9 20C9 19.32 8.78 18.7 8.4 18.2L9.81 16.43C11.17 17.19 12.83 17.18 14.18 16.43L15.59 18.2C15.22 18.7 15 19.32 15 20C15 21.66 16.34 23 18 23C19.66 23 21 21.66 21 20C21 18.34 19.66 17 18 17C17.56 17 17.15 17.09 16.77 17.26L15.36 15.49C15.8038 14.9941 16.1318 14.4058 16.3203 13.7677C16.5088 13.1295 16.5531 12.4574 16.45 11.8L18.48 11.12C19.01 11.94 19.94 12.49 21 12.49C22.66 12.49 24 11.15 24 9.49C24 7.83 22.66 6.5 21 6.5ZM3 10.5C2.45 10.5 2 10.05 2 9.5C2 8.95 2.45 8.5 3 8.5C3.55 8.5 4 8.95 4 9.5C4 10.05 3.55 10.5 3 10.5ZM6 21C5.45 21 5 20.55 5 20C5 19.45 5.45 19 6 19C6.55 19 7 19.45 7 20C7 20.55 6.55 21 6 21ZM11 3C11 2.45 11.45 2 12 2C12.55 2 13 2.45 13 3C13 3.55 12.55 4 12 4C11.45 4 11 3.55 11 3ZM12 15C11.337 15 10.7011 14.7366 10.2322 14.2678C9.76339 13.7989 9.5 13.163 9.5 12.5C9.5 11.837 9.76339 11.2011 10.2322 10.7322C10.7011 10.2634 11.337 10 12 10C12.663 10 13.2989 10.2634 13.7678 10.7322C14.2366 11.2011 14.5 11.837 14.5 12.5C14.5 13.163 14.2366 13.7989 13.7678 14.2678C13.2989 14.7366 12.663 15 12 15ZM18 19C18.55 19 19 19.45 19 20C19 20.55 18.55 21 18 21C17.45 21 17 20.55 17 20C17 19.45 17.45 19 18 19ZM21 10.5C20.45 10.5 20 10.05 20 9.5C20 8.95 20.45 8.5 21 8.5C21.55 8.5 22 8.95 22 9.5C22 10.05 21.55 10.5 21 10.5Z" fill="#757575"/>
</svg>
