<svg width="24" height="24" viewBox="0 0 24 24" fill="none" xmlns="http://www.w3.org/2000/svg">
<path d="M3.42852 2.57144H5.13423C5.56658 2.57152 5.98293 2.73496 6.29987 3.02902C6.61682 3.32307 6.81095 3.72603 6.84338 4.15716L6.84852 4.28573V19.7143C6.84842 20.1468 6.68487 20.5632 6.39063 20.8802C6.0964 21.1972 5.69323 21.3912 5.26195 21.4234L5.13338 21.4286H3.42852C2.99617 21.4285 2.57982 21.2651 2.26288 20.971C1.94593 20.677 1.7518 20.274 1.71938 19.8429L1.71423 19.7143V4.28573C1.7141 3.85323 1.87744 3.43667 2.17152 3.11954C2.46559 2.80242 2.86867 2.60816 3.29995 2.57573L3.42852 2.57144ZM9.42423 2.57144H11.1342C11.5666 2.57152 11.9829 2.73496 12.2999 3.02902C12.6168 3.32307 12.811 3.72603 12.8434 4.15716L12.8485 4.28573V19.7143C12.8484 20.1468 12.6849 20.5632 12.3906 20.8802C12.0964 21.1972 11.6932 21.3912 11.2619 21.4234L11.1334 21.4286H9.42423C8.99174 21.4287 8.57518 21.2654 8.25805 20.9713C7.94092 20.6772 7.74667 20.2741 7.71423 19.8429L7.70995 19.7143V4.28573C7.70981 3.85323 7.87315 3.43667 8.16723 3.11954C8.46131 2.80242 8.86439 2.60816 9.29566 2.57573L9.42423 2.57144ZM17.2542 4.30801C17.9777 4.30801 18.6394 4.76916 18.8768 5.47373L18.9162 5.6083L22.2248 18.8794C22.3298 19.2991 22.2722 19.7429 22.0636 20.1219C21.855 20.5009 21.5109 20.787 21.1002 20.9229L20.9768 20.958L19.2942 21.378C19.1548 21.4123 19.0162 21.4294 18.8785 21.4294C18.5202 21.4291 18.1709 21.3165 17.8799 21.1074C17.5888 20.8983 17.3706 20.6032 17.2559 20.2637L17.2165 20.1283L13.9079 6.85716C13.8033 6.43751 13.8611 5.99382 14.0698 5.61501C14.2785 5.23621 14.6227 4.95029 15.0334 4.81458L15.1559 4.77858L16.8385 4.35944C16.9779 4.32516 17.1165 4.30801 17.2542 4.30801ZM5.13423 3.85716H3.42852C3.32821 3.85712 3.23107 3.89227 3.15401 3.95649C3.07695 4.02071 3.02486 4.10992 3.0068 4.20858L2.99995 4.28573V19.7143C2.99995 19.9234 3.15252 20.1 3.35138 20.136L3.42852 20.1429H5.13423C5.34423 20.1429 5.51995 19.9903 5.55595 19.7914L5.5628 19.7143V4.28573C5.56284 4.18542 5.52769 4.08828 5.46347 4.01122C5.39926 3.93416 5.31005 3.88207 5.21138 3.86401L5.13423 3.85716ZM11.1342 3.85716H9.42423C9.32393 3.85712 9.22678 3.89227 9.14973 3.95649C9.07267 4.02071 9.02057 4.10992 9.00252 4.20858L8.99566 4.28573V19.7143C8.99566 19.9234 9.14738 20.1 9.34709 20.136L9.42423 20.1429H11.1342C11.3442 20.1429 11.5199 19.9903 11.5559 19.7914L11.5628 19.7143V4.28573C11.5628 4.18542 11.5277 4.08828 11.4635 4.01122C11.3993 3.93416 11.31 3.88207 11.2114 3.86401L11.1342 3.85716ZM17.2542 5.59373L17.2019 5.59716L17.1488 5.60658L15.4671 6.02658C15.3698 6.05086 15.284 6.1085 15.2248 6.18947C15.1656 6.27045 15.1367 6.36962 15.1431 6.46973L15.1551 6.54516L18.4637 19.8172C18.5194 20.04 18.7182 20.1429 18.8785 20.1429L18.9317 20.1403L18.9831 20.1292L20.6657 19.71C20.7628 19.6858 20.8485 19.6283 20.9076 19.5475C20.9668 19.4667 20.9958 19.3677 20.9897 19.2677L20.9777 19.1906L17.6691 5.91858C17.646 5.82597 17.5926 5.74372 17.5175 5.68487C17.4423 5.62602 17.3497 5.59394 17.2542 5.59373Z" fill="#757575"/>
</svg>
