<svg width="24" height="24" viewBox="0 0 24 24" fill="none" xmlns="http://www.w3.org/2000/svg">
<path d="M2.25 4.125C2.25 3.62772 2.44754 3.15081 2.79917 2.79917C3.15081 2.44754 3.62772 2.25 4.125 2.25H5.625C6.12228 2.25 6.59919 2.44754 6.95083 2.79917C7.30246 3.15081 7.5 3.62772 7.5 4.125V19.875C7.5 20.3723 7.30246 20.8492 6.95083 21.2008C6.59919 21.5525 6.12228 21.75 5.625 21.75H4.125C3.62772 21.75 3.15081 21.5525 2.79917 21.2008C2.44754 20.8492 2.25 20.3723 2.25 19.875V4.125ZM9 4.125C9 3.62772 9.19754 3.15081 9.54917 2.79917C9.90081 2.44754 10.3777 2.25 10.875 2.25H12.375C12.8723 2.25 13.3492 2.44754 13.7008 2.79917C14.0525 3.15081 14.25 3.62772 14.25 4.125V19.875C14.25 20.3723 14.0525 20.8492 13.7008 21.2008C13.3492 21.5525 12.8723 21.75 12.375 21.75H10.875C10.3777 21.75 9.90081 21.5525 9.54917 21.2008C9.19754 20.8492 9 20.3723 9 19.875V4.125ZM16.35 5.70375C15.3787 5.97225 14.802 7.0035 15.0623 8.00625L18.2648 20.3558C18.5258 21.3593 19.5233 21.954 20.4945 21.6855L21.9008 21.2955C22.8713 21.0277 23.448 19.9965 23.1877 18.993L19.9852 6.645C19.7242 5.6415 18.7267 5.04675 17.7555 5.31525L16.35 5.70375Z" fill="url(#paint0_linear_1159_806)"/>
<defs>
<linearGradient id="paint0_linear_1159_806" x1="2.25" y1="12" x2="23.2502" y2="12" gradientUnits="userSpaceOnUse">
<stop stop-color="#3B54EA"/>
<stop offset="1" stop-color="#AB4EE5"/>
</linearGradient>
</defs>
</svg>
