<svg width="48" height="48" viewBox="0 0 48 48" fill="none" xmlns="http://www.w3.org/2000/svg">
<path fill-rule="evenodd" clip-rule="evenodd" d="M10.0001 18C10.0001 14.287 11.4751 10.726 14.1006 8.1005C16.7261 5.475 20.2871 4 24.0001 4C27.7131 4 31.2741 5.475 33.8996 8.1005C36.5251 10.726 38.0001 14.287 38.0001 18V25.528L41.6441 32.816C41.8119 33.1514 41.8911 33.5242 41.8742 33.8989C41.8574 34.2735 41.745 34.6377 41.5478 34.9567C41.3506 35.2757 41.0752 35.539 40.7476 35.7216C40.42 35.9042 40.0511 36.0001 39.6761 36H31.7481C31.3032 37.7165 30.301 39.2366 28.8986 40.3219C27.4963 41.4071 25.7733 41.9959 24.0001 41.9959C22.2269 41.9959 20.5039 41.4071 19.1016 40.3219C17.6992 39.2366 16.697 37.7165 16.2521 36H8.32411C7.94906 36.0001 7.58023 35.9042 7.25264 35.7216C6.92505 35.539 6.64958 35.2757 6.45239 34.9567C6.25521 34.6377 6.14285 34.2735 6.126 33.8989C6.10915 33.5242 6.18836 33.1514 6.3561 32.816L10.0001 25.528V18ZM20.5361 36C20.8872 36.608 21.3921 37.1129 22.0002 37.464C22.6082 37.815 23.298 37.9998 24.0001 37.9998C24.7022 37.9998 25.392 37.815 26 37.464C26.6081 37.1129 27.113 36.608 27.4641 36H20.5361ZM24.0001 8C21.3479 8 18.8044 9.05357 16.929 10.9289C15.0537 12.8043 14.0001 15.3478 14.0001 18V25.528C14.0001 26.1487 13.8556 26.7608 13.5781 27.316L11.2381 32H36.7641L34.4241 27.316C34.1459 26.761 34.0008 26.1488 34.0001 25.528V18C34.0001 15.3478 32.9465 12.8043 31.0712 10.9289C29.1958 9.05357 26.6523 8 24.0001 8Z" fill="#F4EEF6"/>
<path d="M34 1.25C37.5936 1.25 40.75 4.57732 40.75 9C40.75 13.4227 37.5936 16.75 34 16.75C30.4064 16.75 27.25 13.4227 27.25 9C27.25 4.57732 30.4064 1.25 34 1.25Z" fill="url(#paint0_linear_1418_714)" stroke="#F4EEF6" stroke-width="2.5"/>
<defs>
<linearGradient id="paint0_linear_1418_714" x1="34" y1="0" x2="34" y2="18" gradientUnits="userSpaceOnUse">
<stop stop-color="#3B54EA"/>
<stop offset="1" stop-color="#AB4EE5"/>
</linearGradient>
</defs>
</svg>
